<svg width="25" height="25" viewBox="0 0 25 25" fill="none" xmlns="http://www.w3.org/2000/svg">
<g clip-path="url(#clip0)">
<path d="M13.186 18.966L24.7173 7.40273C25.0949 7.02387 25.0942 6.4105 24.7153 6.03228C24.3365 5.65435 23.7228 5.65532 23.3449 6.03423L12.5 16.9092L1.65508 6.03384C1.27715 5.65498 0.663822 5.65401 0.284918 6.03188C0.0949764 6.22148 5.72205e-06 6.46987 5.72205e-06 6.71826C5.72205e-06 6.96601 0.0943413 7.21342 0.282963 7.40268L11.8139 18.966C11.9955 19.1484 12.2425 19.2508 12.5 19.2508C12.7574 19.2508 13.0042 19.1481 13.186 18.966Z" fill="#C7AC9F"/>
</g>
<defs>
<clipPath id="clip0">
<rect width="25" height="25" fill="white" transform="translate(25) rotate(90)"/>
</clipPath>
</defs>
</svg>
