<svg width="25" height="25" viewBox="0 0 25 25" fill="none" xmlns="http://www.w3.org/2000/svg">
<g clip-path="url(#clip0)">
<path d="M12.5 0C5.60748 0 0 6.1174 0 13.6364V19.8864C0 20.2002 0.254404 20.4546 0.5682 20.4546H2.27275V22.7273C2.27275 23.9807 3.29201 25.0001 4.54549 25.0001H6.25004C6.5641 25.0001 6.81824 24.7459 6.81824 24.4319V14.2046C6.81824 13.8905 6.5641 13.6364 6.25004 13.6364H4.54549C3.29207 13.6364 2.27275 14.6556 2.27275 15.9091V13.6364C2.27275 7.3703 6.86091 2.27275 12.5 2.27275C18.1391 2.27275 22.7273 7.3703 22.7273 13.6364V15.9091C22.7273 14.6556 21.708 13.6364 20.4546 13.6364H18.75C18.4359 13.6364 18.1818 13.8905 18.1818 14.2046V24.4319C18.1818 24.7459 18.4359 25.0001 18.75 25.0001H20.4546C21.708 25.0001 22.7273 23.9808 22.7273 22.7273V20.4546H24.4319C24.7456 20.4546 25.0001 20.2002 25.0001 19.8864V13.6364C25 6.1174 19.3926 0 12.5 0Z" fill="white"/>
</g>
<defs>
<clipPath id="clip0">
<rect width="25" height="25" fill="white"/>
</clipPath>
</defs>
</svg>
