<svg width="194" height="46" viewBox="0 0 194 46" fill="none" xmlns="http://www.w3.org/2000/svg">
<path d="M10.7109 34.48C7.99088 34.48 5.70288 34.224 3.84688 33.712C1.99088 33.2 0.710875 32.704 0.00687507 32.224L0.966875 27.28V26.32C1.41488 26.928 2.05488 27.568 2.88688 28.24C3.75088 28.912 4.77488 29.488 5.95888 29.968C7.14288 30.416 8.43888 30.64 9.84688 30.64C12.2149 30.64 13.8469 30.144 14.7429 29.152C15.6709 28.16 16.1349 26.416 16.1349 23.92V8.08C16.1349 7.056 16.0229 6.336 15.7989 5.92C15.5749 5.472 15.3509 5.232 15.1269 5.2H22.5189C22.2949 5.2 22.0709 5.424 21.8469 5.872C21.6229 6.32 21.5109 7.072 21.5109 8.128V23.92C21.5109 26.736 21.0629 28.912 20.1669 30.448C19.3029 31.952 18.0549 33.008 16.4229 33.616C14.8229 34.192 12.9189 34.48 10.7109 34.48ZM37.3059 34.48C35.4499 34.48 33.8179 34.16 32.4099 33.52C31.0339 32.848 29.9619 31.712 29.1939 30.112C28.4579 28.48 28.0899 26.224 28.0899 23.344V14.416C28.0899 13.392 27.9779 12.656 27.7539 12.208C27.5619 11.76 27.3539 11.536 27.1299 11.536H33.9939C33.7699 11.536 33.5299 11.76 33.2739 12.208C33.0499 12.656 32.9379 13.392 32.9379 14.416V24.016C32.9379 26.736 33.4179 28.592 34.3779 29.584C35.3379 30.576 36.6019 31.072 38.1699 31.072C39.7379 31.072 41.0979 30.688 42.2499 29.92C43.4019 29.152 44.2979 28.096 44.9379 26.752C45.6099 25.408 45.9459 23.888 45.9459 22.192V14.416C45.9459 13.392 45.8339 12.672 45.6099 12.256C45.4179 11.808 45.2099 11.568 44.9859 11.536H50.8419V31.12C50.8419 32.144 50.9379 32.88 51.1299 33.328C51.3539 33.776 51.5779 34 51.8019 34H45.9459V31.12L46.0419 30.16L45.9459 30.064C45.6899 30.576 45.1939 31.184 44.4579 31.888C43.7539 32.56 42.8099 33.168 41.6259 33.712C40.4419 34.224 39.0019 34.48 37.3059 34.48ZM74.2951 45.712C74.3911 45.456 74.4871 44.992 74.5831 44.32C74.7111 43.68 74.7751 42.864 74.7751 41.872V32.512L74.8711 31.6L74.7751 31.552C74.0391 32.384 73.0311 33.088 71.7511 33.664C70.4711 34.208 68.8711 34.48 66.9511 34.48C63.9111 34.48 61.5431 33.968 59.8471 32.944C58.1831 31.92 57.0151 30.528 56.3431 28.768C55.7031 27.008 55.3831 25.024 55.3831 22.816C55.3831 20.576 55.7031 18.576 56.3431 16.816C57.0151 15.056 58.1831 13.664 59.8471 12.64C61.5431 11.584 63.9111 11.056 66.9511 11.056C68.8711 11.056 70.4711 11.312 71.7511 11.824C73.0311 12.336 74.0391 12.992 74.7751 13.792L74.8711 13.744L74.7751 12.832V11.536H80.6791C80.4551 11.568 80.2311 11.808 80.0071 12.256C79.7831 12.704 79.6711 13.456 79.6711 14.512V41.872C79.6711 42.896 79.7671 43.632 79.9591 44.08C80.1831 44.528 80.3911 44.752 80.5831 44.752C79.2071 44.752 77.9431 44.848 76.7911 45.04C75.6711 45.264 74.8391 45.488 74.2951 45.712ZM67.2871 31.072C68.9191 31.072 70.2311 30.832 71.2231 30.352C72.2151 29.84 72.9671 29.184 73.4791 28.384C73.9911 27.552 74.3271 26.656 74.4871 25.696C74.6791 24.736 74.7751 23.776 74.7751 22.816C74.7751 21.984 74.6791 21.088 74.4871 20.128C74.2951 19.136 73.9431 18.208 73.4311 17.344C72.9191 16.48 72.1671 15.776 71.1751 15.232C70.1831 14.688 68.8871 14.416 67.2871 14.416C64.5991 14.416 62.7431 15.184 61.7191 16.72C60.7271 18.256 60.2311 20.304 60.2311 22.864C60.2311 24.56 60.4231 26.032 60.8071 27.28C61.2231 28.496 61.9431 29.44 62.9671 30.112C63.9911 30.752 65.4311 31.072 67.2871 31.072ZM97.3498 34.48C94.8218 34.48 92.7418 34.192 91.1098 33.616C89.4778 33.008 88.1978 32.176 87.2698 31.12C86.3418 30.064 85.6858 28.832 85.3018 27.424C84.9498 26.016 84.7738 24.48 84.7738 22.816C84.7738 19.2 85.7978 16.336 87.8458 14.224C89.9258 12.112 92.9978 11.056 97.0618 11.056C99.4298 11.056 101.334 11.376 102.774 12.016C104.246 12.656 105.35 13.504 106.086 14.56C106.854 15.616 107.366 16.768 107.622 18.016C107.91 19.232 108.054 20.432 108.054 21.616V23.872C108.054 23.776 107.606 23.68 106.71 23.584C105.846 23.456 104.374 23.392 102.294 23.392H89.6698C89.6698 25.76 90.3738 27.632 91.7818 29.008C93.1898 30.384 95.2858 31.072 98.0698 31.072C100.47 31.072 102.438 30.784 103.974 30.208C105.542 29.6 106.582 29.008 107.094 28.432V29.392L107.574 32.56C106.87 32.976 105.622 33.408 103.83 33.856C102.07 34.272 99.9098 34.48 97.3498 34.48ZM91.5898 20.224H103.254C103.254 19.392 103.078 18.528 102.726 17.632C102.374 16.736 101.75 15.984 100.854 15.376C99.9578 14.736 98.6938 14.416 97.0618 14.416C94.9818 14.416 93.3178 14.912 92.0698 15.904C90.8538 16.896 90.2458 18.016 90.2458 19.264C90.2458 19.584 90.3418 19.824 90.5338 19.984C90.7258 20.144 91.0778 20.224 91.5898 20.224ZM125.505 34.48C123.745 34.48 122.257 34.272 121.041 33.856C119.857 33.44 118.849 32.864 118.017 32.128L117.921 32.176L118.017 33.088V34H112.161C112.385 34 112.593 33.776 112.785 33.328C113.009 32.88 113.121 32.144 113.121 31.12V3.76C113.121 2.736 113.009 2.016 112.785 1.6C112.593 1.152 112.385 0.911999 112.161 0.879997H118.017V12.496L117.921 13.408L118.017 13.504C118.657 12.896 119.617 12.336 120.897 11.824C122.209 11.312 123.745 11.056 125.505 11.056C128.481 11.056 130.833 11.584 132.561 12.64C134.289 13.664 135.521 15.056 136.257 16.816C137.025 18.576 137.409 20.576 137.409 22.816C137.409 25.024 137.041 27.008 136.305 28.768C135.569 30.528 134.337 31.92 132.609 32.944C130.881 33.968 128.513 34.48 125.505 34.48ZM125.025 31.072C127.009 31.072 128.545 30.752 129.633 30.112C130.721 29.472 131.473 28.544 131.889 27.328C132.305 26.08 132.513 24.576 132.513 22.816C132.513 21.056 132.289 19.552 131.841 18.304C131.425 17.056 130.673 16.096 129.585 15.424C128.529 14.752 127.009 14.416 125.025 14.416C123.105 14.416 121.633 14.8 120.609 15.568C119.617 16.304 118.929 17.312 118.545 18.592C118.193 19.872 118.017 21.28 118.017 22.816C118.017 25.344 118.513 27.36 119.505 28.864C120.497 30.336 122.337 31.072 125.025 31.072ZM153.173 34.48C149.973 34.48 147.461 33.968 145.637 32.944C143.845 31.92 142.581 30.528 141.845 28.768C141.141 27.008 140.789 25.024 140.789 22.816C140.789 20.576 141.157 18.576 141.893 16.816C142.661 15.056 143.941 13.664 145.733 12.64C147.525 11.584 150.005 11.056 153.173 11.056C156.341 11.056 158.821 11.584 160.613 12.64C162.405 13.664 163.669 15.056 164.405 16.816C165.173 18.576 165.557 20.576 165.557 22.816C165.557 25.024 165.189 27.008 164.453 28.768C163.749 30.528 162.501 31.92 160.709 32.944C158.917 33.968 156.405 34.48 153.173 34.48ZM153.173 31.072C155.157 31.072 156.693 30.752 157.781 30.112C158.869 29.472 159.621 28.544 160.037 27.328C160.453 26.08 160.661 24.576 160.661 22.816C160.661 21.056 160.437 19.552 159.989 18.304C159.573 17.056 158.821 16.096 157.733 15.424C156.677 14.752 155.157 14.416 153.173 14.416C151.221 14.416 149.701 14.768 148.613 15.472C147.525 16.144 146.757 17.12 146.309 18.4C145.893 19.648 145.685 21.136 145.685 22.864C145.685 24.56 145.893 26.032 146.309 27.28C146.725 28.496 147.477 29.44 148.565 30.112C149.653 30.752 151.189 31.072 153.173 31.072ZM165.931 34C166.283 34 166.795 33.776 167.467 33.328C168.139 32.88 168.875 32.16 169.675 31.168C170.283 30.432 170.987 29.552 171.787 28.528C172.619 27.504 173.451 26.48 174.283 25.456C175.115 24.4 175.851 23.488 176.491 22.72C175.819 21.952 175.035 21.056 174.139 20.032C173.243 19.008 172.363 18 171.499 17.008C170.667 16.016 169.947 15.184 169.339 14.512C168.443 13.456 167.707 12.704 167.131 12.256C166.555 11.808 166.155 11.568 165.931 11.536H173.803C173.547 11.568 173.435 11.824 173.467 12.304C173.531 12.752 173.963 13.488 174.763 14.512C175.115 14.96 175.579 15.536 176.155 16.24C176.731 16.912 177.339 17.6 177.979 18.304C178.619 19.008 179.195 19.648 179.707 20.224H179.803C180.251 19.68 180.763 19.056 181.339 18.352C181.947 17.648 182.539 16.944 183.115 16.24C183.723 15.536 184.219 14.928 184.603 14.416C185.371 13.392 185.787 12.656 185.851 12.208C185.915 11.76 185.819 11.536 185.563 11.536H193.579C193.259 11.536 192.763 11.76 192.091 12.208C191.451 12.624 190.715 13.344 189.883 14.368C189.307 15.104 188.587 15.984 187.723 17.008C186.859 18 185.979 19.008 185.083 20.032C184.219 21.056 183.435 21.952 182.731 22.72C183.435 23.456 184.251 24.336 185.179 25.36C186.107 26.352 187.019 27.36 187.915 28.384C188.811 29.376 189.547 30.256 190.123 31.024C190.987 32.112 191.723 32.88 192.331 33.328C192.939 33.776 193.355 34 193.579 34H185.707C185.995 34 186.107 33.776 186.043 33.328C186.011 32.88 185.579 32.112 184.747 31.024C184.395 30.544 183.915 29.952 183.307 29.248C182.699 28.544 182.059 27.808 181.387 27.04C180.747 26.272 180.155 25.6 179.611 25.024H179.515C179.067 25.6 178.539 26.272 177.931 27.04C177.323 27.808 176.731 28.56 176.155 29.296C175.611 30 175.147 30.608 174.763 31.12C173.963 32.144 173.531 32.88 173.467 33.328C173.435 33.776 173.547 34 173.803 34H165.931Z" fill="white"/>
</svg>
